<?xml version="1.0" standalone="yes"?>

<svg version="1.1" viewBox="0.0 0.0 1500.0 500.0" fill="none" stroke="none" stroke-linecap="square" stroke-miterlimit="10" xmlns="http://www.w3.org/2000/svg" xmlns:xlink="http://www.w3.org/1999/xlink"><clipPath id="p.0"><path d="m0 0l1500.0 0l0 500.0l-1500.0 0l0 -500.0z" clip-rule="nonzero"></path></clipPath><g clip-path="url(#p.0)"><path fill="#000000" fill-opacity="0.0" d="m0 0l1500.0 0l0 500.0l-1500.0 0z" fill-rule="evenodd"></path><path fill="#0c343d" d="m17.629744 8.451444l1262.7401 70.83474l0 263.40137l-1262.7401 70.83475z" fill-rule="evenodd"></path><path fill="#0c343d" d="m30.306726 434.1575l206.2396 52.509857l1238.9573 -87.15552l-206.2395 -52.509857z" fill-rule="evenodd"></path><path fill="#ffffff" d="m73.71653 24.249342l0 379.183l56.682655 0l0 -161.13985l117.19522 0l0 -64.14555l-117.19522 0l0 -89.752045l135.77028 0l0 -64.14555z" fill-rule="evenodd"></path><path stroke="#ffffff" stroke-width="1.0" stroke-linejoin="round" stroke-linecap="butt" d="m73.71653 24.249342l0 379.183l56.682655 0l0 -161.13985l117.19522 0l0 -64.14555l-117.19522 0l0 -89.752045l135.77028 0l0 -64.14555z" fill-rule="evenodd"></path><path fill="#ffffff" d="m1151.2572 120.81358c18.816772 0 33.897705 7.386505 45.242554 22.159515c11.379272 14.772995 17.068848 37.170776 17.068848 67.19333c0 30.379974 -5.843872 53.17485 -17.531494 68.38472c-11.653442 15.170105 -26.580078 22.755188 -44.779907 22.755188c-18.199951 0 -33.21228 -7.6446533 -45.036987 -22.933899c-11.824829 -15.3289795 -17.737183 -37.826035 -17.737183 -67.49118c0 -30.141693 5.7581787 -52.678467 17.274414 -67.61032c11.516357 -14.971558 26.682861 -22.457352 45.499756 -22.457352zm-0.46276855 -45.212532c-18.405518 0 -34.651733 3.4549713 -48.738647 10.364929c-10.590942 5.1228943 -20.342041 12.985947 -29.253418 23.58915c-8.877197 10.603203 -15.886353 22.576477 -21.027588 35.919846c-6.889282 18.10884 -10.333862 40.506622 -10.333862 67.19333c0 41.697998 9.922607 74.44086 29.767578 98.22858c19.845093 23.747986 46.579346 35.62198 80.20288 35.62198c33.21228 0 59.740845 -11.933563 79.58594 -35.80069c19.845093 -23.90686 29.767578 -57.007126 29.767578 -99.3008c0 -42.651093 -10.008179 -75.94992 -30.024658 -99.896484c-19.982178 -23.946564 -46.630737 -35.919838 -79.9458 -35.919838z" fill-rule="evenodd"></path><path stroke="#ffffff" stroke-width="1.0" stroke-linejoin="round" stroke-linecap="butt" d="m1151.2572 120.81358c18.816772 0 33.897705 7.386505 45.242554 22.159515c11.379272 14.772995 17.068848 37.170776 17.068848 67.19333c0 30.379974 -5.843872 53.17485 -17.531494 68.38472c-11.653442 15.170105 -26.580078 22.755188 -44.779907 22.755188c-18.199951 0 -33.21228 -7.6446533 -45.036987 -22.933899c-11.824829 -15.3289795 -17.737183 -37.826035 -17.737183 -67.49118c0 -30.141693 5.7581787 -52.678467 17.274414 -67.61032c11.516357 -14.971558 26.682861 -22.457352 45.499756 -22.457352zm-0.46276855 -45.212532c-18.405518 0 -34.651733 3.4549713 -48.738647 10.364929c-10.590942 5.1228943 -20.342041 12.985947 -29.253418 23.58915c-8.877197 10.603203 -15.886353 22.576477 -21.027588 35.919846c-6.889282 18.10884 -10.333862 40.506622 -10.333862 67.19333c0 41.697998 9.922607 74.44086 29.767578 98.22858c19.845093 23.747986 46.579346 35.62198 80.20288 35.62198c33.21228 0 59.740845 -11.933563 79.58594 -35.80069c19.845093 -23.90686 29.767578 -57.007126 29.767578 -99.3008c0 -42.651093 -10.008179 -75.94992 -30.024658 -99.896484c-19.982178 -23.946564 -46.630737 -35.919838 -79.9458 -35.919838z" fill-rule="evenodd"></path><path fill="#ffffff" d="m297.19946 38.514435l0 344.28104l163.89166 0l0 -58.00644l-120.38318 0l0 -93.70267l108.1832 0l0 -58.006424l-108.1832 0l0 -76.32424l116.26752 0l0 -58.241264z" fill-rule="evenodd"></path><path stroke="#ffffff" stroke-width="1.0" stroke-linejoin="round" stroke-linecap="butt" d="m297.19946 38.514435l0 344.28104l163.89166 0l0 -58.00644l-120.38318 0l0 -93.70267l108.1832 0l0 -58.006424l-108.1832 0l0 -76.32424l116.26752 0l0 -58.241264z" fill-rule="evenodd"></path><path fill="#ffffff" d="m501.45145 45.044617l0 327.3101l170.3646 0l0 -55.602203l-121.500305 0l0 -271.7079z" fill-rule="evenodd"></path><path stroke="#ffffff" stroke-width="1.0" stroke-linejoin="round" stroke-linecap="butt" d="m501.45145 45.044617l0 327.3101l170.3646 0l0 -55.602203l-121.500305 0l0 -271.7079z" fill-rule="evenodd"></path><path fill="#ffffff" d="m699.40155 54.055115l0 312.2339l49.686646 0l0 -312.2339z" fill-rule="evenodd"></path><path stroke="#ffffff" stroke-width="1.0" stroke-linejoin="round" stroke-linecap="butt" d="m699.40155 54.055115l0 312.2339l49.686646 0l0 -312.2339z" fill-rule="evenodd"></path><path fill="#ffffff" d="m795.86505 69.06824l61.57245 134.94615l-67.94672 147.2665l48.145874 0l44.21283 -97.60014l44.07715 97.60014l48.417114 0l-67.946655 -145.14894l61.843628 -137.0637l-46.51837 0l-39.059143 90.66995l-39.872925 -90.66995z" fill-rule="evenodd"></path><path stroke="#ffffff" stroke-width="1.0" stroke-linejoin="round" stroke-linecap="butt" d="m795.86505 69.06824l61.57245 134.94615l-67.94672 147.2665l48.145874 0l44.21283 -97.60014l44.07715 97.60014l48.417114 0l-67.946655 -145.14894l61.843628 -137.0637l-46.51837 0l-39.059143 90.66995l-39.872925 -90.66995z" fill-rule="evenodd"></path></g></svg>

